<?xml version="1.0" encoding="UTF-8" standalone="no"?>
<svg
   width="1104"
   height="794"
   viewBox="0 0 1104 794"
   fill="none"
   version="1.1"
   id="svg4"
   sodipodi:docname="bus.svg"
   inkscape:version="1.1.1 (3bf5ae0d25, 2021-09-20)"
   xmlns:inkscape="http://www.inkscape.org/namespaces/inkscape"
   xmlns:sodipodi="http://sodipodi.sourceforge.net/DTD/sodipodi-0.dtd"
   xmlns="http://www.w3.org/2000/svg"
   xmlns:svg="http://www.w3.org/2000/svg">
  <defs
     id="defs8" />
  <sodipodi:namedview
     id="namedview6"
     pagecolor="#ffffff"
     bordercolor="#666666"
     borderopacity="1.0"
     inkscape:pageshadow="2"
     inkscape:pageopacity="0.0"
     inkscape:pagecheckerboard="0"
     showgrid="false"
     inkscape:zoom="0.56171285"
     inkscape:cx="551.88341"
     inkscape:cy="397.89013"
     inkscape:window-width="1366"
     inkscape:window-height="715"
     inkscape:window-x="-8"
     inkscape:window-y="-8"
     inkscape:window-maximized="1"
     inkscape:current-layer="svg4" />
  <path
     fill-rule="evenodd"
     clip-rule="evenodd"
     d="M776.831 594.847H742.135V642.326C742.135 658.761 728.896 672 712.461 672H671.374C654.939 672 641.699 658.761 641.699 642.326V595.304H460.458V642.326C460.458 658.761 447.219 672 430.784 672H389.697C373.262 672 360.023 658.761 360.023 642.326V595.304H325.783V220.952C325.783 186.256 345.87 161.147 386.501 145.625C466.85 114.125 635.764 114.125 716.57 145.625C757.2 161.147 777.288 186.256 777.288 220.952V594.847H776.831ZM812.44 306.322H795.092V404.932H812.44C823.397 404.932 832.071 396.258 832.071 385.302V325.953C832.071 314.996 823.397 306.322 812.44 306.322ZM290.631 306.322H307.979V404.932H290.631C279.674 404.932 271 396.258 271 385.302V325.953C271 314.996 279.674 306.322 290.631 306.322ZM482.828 161.147H620.243C624.351 161.147 627.547 164.343 627.547 168.452V192.191C627.547 196.3 624.351 199.495 620.243 199.495H482.828C478.719 199.495 475.524 196.3 475.524 192.191V168.452C475.524 164.343 478.719 161.147 482.828 161.147ZM375.545 227.8H725.7C730.265 227.8 734.374 231.909 734.374 236.474V431.867C734.374 436.432 730.265 440.541 725.7 440.541H375.545C370.979 440.541 366.871 436.432 366.871 431.867V236.474C366.871 231.909 370.523 227.8 375.545 227.8ZM721.135 509.477C721.135 500.803 717.939 493.042 712.004 487.107C706.07 481.172 698.309 477.976 689.635 477.976C680.961 477.976 673.656 481.172 667.265 487.107C660.873 493.042 658.134 500.803 658.134 509.477C658.134 518.151 661.33 525.455 667.265 531.39C673.656 537.325 680.961 540.52 689.635 540.52C698.309 540.52 706.07 537.325 712.004 531.39C718.396 525.455 721.135 518.151 721.135 509.477ZM444.937 509.477C444.937 500.803 441.741 493.042 435.806 487.107C429.871 481.172 422.11 477.976 413.436 477.976C404.762 477.976 397.001 481.172 391.066 487.107C385.132 493.042 381.936 500.803 381.936 509.477C381.936 518.151 384.675 525.455 391.066 531.39C397.001 537.325 404.762 540.52 413.436 540.52C422.567 540.52 429.871 537.325 435.806 531.39C441.741 525.455 444.937 518.151 444.937 509.477Z"
     fill="#E16168"
     id="path2"
     style="fill:#f8f4f0;fill-opacity:1" />
</svg>
