<?xml version="1.0" encoding="UTF-8" standalone="no"?>
<svg
   width="1104"
   height="794"
   viewBox="0 0 1104 794"
   fill="none"
   version="1.1"
   id="svg20"
   sodipodi:docname="chef.svg"
   inkscape:version="1.1.1 (3bf5ae0d25, 2021-09-20)"
   xmlns:inkscape="http://www.inkscape.org/namespaces/inkscape"
   xmlns:sodipodi="http://sodipodi.sourceforge.net/DTD/sodipodi-0.dtd"
   xmlns="http://www.w3.org/2000/svg"
   xmlns:svg="http://www.w3.org/2000/svg">
  <defs
     id="defs24" />
  <sodipodi:namedview
     id="namedview22"
     pagecolor="#ffffff"
     bordercolor="#666666"
     borderopacity="1.0"
     inkscape:pageshadow="2"
     inkscape:pageopacity="0.0"
     inkscape:pagecheckerboard="0"
     showgrid="false"
     inkscape:zoom="0.070214106"
     inkscape:cx="2620.556"
     inkscape:cy="1986.7803"
     inkscape:window-width="1366"
     inkscape:window-height="715"
     inkscape:window-x="-8"
     inkscape:window-y="-8"
     inkscape:window-maximized="1"
     inkscape:current-layer="svg20" />
  <path
     d="M436.336 122.779C425.162 124.57 413.135 133.697 408.274 144.017C406.909 146.918 405.288 152.035 404.691 155.277L403.582 161.247L399.829 160.735C389.85 159.371 376.799 164.147 368.867 172.08C346.263 194.769 358.887 232.725 390.788 238.014C396.161 238.952 404.776 238.27 409.126 236.564C409.979 236.223 416.206 242.449 427.721 254.902L445.036 273.667L448.363 268.55C450.154 265.735 454.845 260.105 458.684 256.096C473.696 240.402 493.143 231.275 514.808 229.655C521.973 229.143 522.4 228.972 522.058 227.266C521.888 226.243 520.267 216.86 518.561 206.369L515.491 187.348L518.903 183.765C536.985 165.256 526.238 133.611 500.393 129.432C492.205 128.152 482.993 130.285 476.852 135.061L474.122 137.108L470.369 133.27C465.678 128.494 456.381 123.888 449.13 122.693C442.904 121.755 442.818 121.755 436.336 122.779Z"
     fill="#E16168"
     id="path2"
     style="fill:#f8f4f0;fill-opacity:1" />
  <path
     d="M510.117 237.588C477.534 242.791 452.287 265.394 444.354 296.442C441.795 306.421 441.454 321.604 443.501 331.328C449.813 361.096 471.99 384.212 501.673 391.888C509.35 393.85 511.226 394.021 522.912 393.679C537.497 393.253 544.065 391.718 555.324 386.259C576.051 376.279 592.94 355.211 597.631 333.375C598.143 331.072 598.655 329.11 598.825 329.11C598.911 329.11 600.531 329.707 602.322 330.475C606.673 332.266 613.837 331.754 619.296 329.11C624.585 326.551 632.773 318.448 638.403 310.089C640.791 306.507 642.753 303.351 642.753 303.01C642.753 302.754 640.62 304.46 638.061 306.763C625.949 317.851 612.643 321.434 603.09 316.06C599.764 314.183 599.678 314.013 599.166 308.127C598.825 304.801 598.313 300.877 597.972 299.427C597.461 296.868 597.546 296.698 599.849 296.698C602.834 296.698 608.549 294.054 610.511 291.921C612.643 289.448 614.605 284.415 614.605 281.174C614.605 279.724 613.837 276.824 612.814 274.777C608.549 266.076 595.072 263.944 588.675 270.938C587.14 272.73 587.14 272.644 582.278 266.503C571.616 253.197 557.201 243.899 540.397 239.549C533.233 237.673 516.259 236.564 510.117 237.588Z"
     fill="#E16168"
     id="path4"
     style="fill:#f8f4f0;fill-opacity:1" />
  <path
     d="M664.929 268.72C660.068 272.047 658.532 274.861 658.532 280.406C658.532 286.291 660.579 289.532 667.403 294.565C674.397 299.597 674.824 305.141 668.853 312.392L665.868 316.059L669.194 319.301L672.435 322.457L675.847 318.106C680.624 312.05 682.33 307.189 681.733 301.388C681.136 295.332 679.003 292.006 672.606 287.059C668.512 283.817 667.488 282.538 667.488 280.661C667.488 278.017 668.853 276.226 670.9 276.226C672.265 276.226 674.312 271.45 674.312 268.208C674.312 266.076 668.341 266.417 664.929 268.72Z"
     fill="#E16168"
     id="path6"
     style="fill:#f8f4f0;fill-opacity:1" />
  <path
     d="M687.106 268.465C683.268 270.512 680.283 275.63 680.283 280.321C680.283 285.353 681.136 286.803 688.471 293.712C694.101 299.171 694.783 300.11 694.783 303.01C694.783 306.677 693.845 308.724 690.348 312.819L687.789 315.633L690.604 318.534C692.139 320.154 693.845 321.434 694.271 321.434C695.721 321.348 701.01 314.183 702.63 310.175C705.957 301.73 704.251 296.442 695.551 288.083C691.883 284.5 688.812 281.344 688.812 281.089C688.812 278.956 690.774 276.227 692.224 276.227C694.015 276.227 695.295 274.009 696.233 269.147C696.66 266.929 696.574 266.844 693.418 266.844C691.542 266.844 688.727 267.526 687.106 268.465Z"
     fill="#E16168"
     id="path8"
     style="fill:#f8f4f0;fill-opacity:1" />
  <path
     d="M643.605 328.598C643.605 330.134 643.861 332.692 644.117 334.142L644.714 336.787H684.548C719.092 336.787 724.551 336.616 724.978 335.507C725.234 334.825 725.66 332.351 726.001 329.963L726.599 325.698H685.059H643.605V328.598Z"
     fill="#E16168"
     id="path10"
     style="fill:#f8f4f0;fill-opacity:1" />
  <path
     d="M359.996 331.754C358.12 332.266 353.514 332.863 349.761 333.29C342.425 333.972 340.037 334.91 336.369 338.322C330.74 343.525 335.175 347.108 349.334 348.558C363.408 350.093 372.79 354.87 392.75 370.564C397.697 374.488 402.559 377.814 403.668 378.155C408.444 379.35 418.424 373.976 420.215 369.37C422.945 362.12 426.868 355.552 430.536 351.884C434.886 347.534 435.227 345.999 432.412 343.184C430.451 341.222 426.612 341.649 419.959 344.463C410.491 348.472 408.103 348.131 393.176 340.796C375.435 332.01 367.929 329.963 359.996 331.754Z"
     fill="#E16168"
     id="path12"
     style="fill:#f8f4f0;fill-opacity:1" />
  <path
     d="M647.017 340.88C647.017 343.61 659.129 357.257 661.603 357.257C662.029 357.257 662.37 357.599 662.37 358.11C662.37 358.622 659.044 358.963 654.097 358.963C630.214 358.963 598.398 362.887 598.398 365.872C598.398 371.928 682.586 376.108 727.196 372.269C755.173 369.796 770.697 367.578 770.697 365.872C770.697 362.887 739.222 358.963 715.51 358.963C707.407 358.963 704.421 358.11 708.345 356.831C710.477 356.148 719.775 346.425 721.566 342.928L723.016 340.198H684.974C664.076 340.198 647.017 340.539 647.017 340.88Z"
     fill="#E16168"
     id="path14"
     style="fill:#f8f4f0;fill-opacity:1" />
  <path
     d="M641.644 374.829C641.303 375.17 641.047 376.364 641.047 377.387C641.047 378.838 642.241 380.117 645.568 382.249C650.856 385.661 659.556 394.873 661.859 399.564C665.442 406.729 671.412 410.994 677.98 410.994C681.477 410.994 682.586 410.397 691.713 403.062C706.981 390.779 708.857 389.926 720.628 388.391C726.172 387.708 731.034 386.941 731.461 386.685C732.655 385.917 732.484 383.102 731.12 380.373C728.902 376.108 726.684 375.682 706.64 375.34L688.13 375.084L682.842 377.729C675.762 381.311 671.753 381.396 666.124 377.985C662.286 375.682 660.836 375.34 652.05 374.743C646.676 374.487 642.07 374.487 641.644 374.829Z"
     fill="#E16168"
     id="path16"
     style="fill:#f8f4f0;fill-opacity:1" />
  <path
     d="M392.835 378.24C392.835 378.496 390.362 386.941 387.291 396.92C380.894 418.159 375.094 439.398 374.752 442.809L374.497 445.283L405.203 455.263L435.91 465.242L435.654 517.87L435.398 570.498H457.49H479.667L484.187 577.492C490.585 587.301 500.905 608.028 506.194 621.505C508.667 627.817 510.544 633.105 510.288 633.276C510.117 633.531 507.729 633.105 505.085 632.423C481.031 626.111 461.072 635.323 449.984 657.756C447.595 662.532 445.463 667.735 445.207 669.185L444.695 672H546.709H648.723V669.868C648.723 665.688 646.762 658.609 644.203 653.832C637.55 641.208 622.196 633.958 599.934 632.849L589.102 632.337L605.308 601.46L621.599 570.498H638.488H655.377L654.95 559.153C654.097 532.626 651.538 508.914 647.529 491.002L645.568 482.472L653.329 482.984C657.594 483.24 665.186 483.666 670.133 484.007L679.174 484.519L680.198 477.866C681.051 471.554 683.695 441.274 684.974 422.85L685.571 414.662L681.307 415.515C676.103 416.624 670.645 415.259 665.612 411.676C663.736 410.226 661.859 409.459 661.518 409.885C661.177 410.226 658.874 416.282 656.4 423.362C653.927 430.356 651.709 436.327 651.624 436.412C651.538 436.583 644.97 435.474 637.038 434.024L622.708 431.209L616.482 424.556C606.928 414.321 595.328 407.326 584.325 405.023C582.448 404.682 576.307 403.317 570.678 402.038C533.574 393.85 497.408 392.911 473.867 399.65C466.702 401.697 458.001 406.559 452.798 411.421L448.192 415.856L432.669 413.212L417.145 410.482L417.486 395.726L417.827 380.885L415.78 381.482C408.103 383.614 401.535 383.102 396.759 379.861C393.518 377.643 392.835 377.387 392.835 378.24Z"
     fill="#E16168"
     id="path18"
     style="fill:#f8f4f0;fill-opacity:1" />
</svg>
