<?xml version="1.0" encoding="UTF-8" standalone="no"?>
<svg
   width="1104"
   height="794"
   viewBox="0 0 1104 794"
   fill="none"
   version="1.1"
   id="svg4"
   sodipodi:docname="hola.svg"
   inkscape:version="1.1.1 (3bf5ae0d25, 2021-09-20)"
   xmlns:inkscape="http://www.inkscape.org/namespaces/inkscape"
   xmlns:sodipodi="http://sodipodi.sourceforge.net/DTD/sodipodi-0.dtd"
   xmlns="http://www.w3.org/2000/svg"
   xmlns:svg="http://www.w3.org/2000/svg">
  <defs
     id="defs8" />
  <sodipodi:namedview
     id="namedview6"
     pagecolor="#ffffff"
     bordercolor="#666666"
     borderopacity="1.0"
     inkscape:pageshadow="2"
     inkscape:pageopacity="0.0"
     inkscape:pagecheckerboard="0"
     showgrid="false"
     inkscape:zoom="0.56171285"
     inkscape:cx="551.88341"
     inkscape:cy="397.89013"
     inkscape:window-width="1366"
     inkscape:window-height="715"
     inkscape:window-x="-8"
     inkscape:window-y="-8"
     inkscape:window-maximized="1"
     inkscape:current-layer="svg4" />
  <path
     d="M536.647 660.004C533.971 653.405 526.409 633.6 519.842 615.992C513.275 598.384 503.791 580.112 498.766 575.388L489.63 566.799L343.192 564.953C203.492 563.192 195.97 562.745 179.692 555.218C159.357 545.815 134.363 524.004 122.637 505.429C103.783 475.562 102.063 460.256 103.315 333.418L104.473 216.128L114.788 195.124C128.066 168.084 158.8 139.757 185.832 129.643C205.957 122.113 211.379 122 551.127 122C859.693 122 897.853 122.631 913.656 127.996C951.038 140.685 981.484 170.946 994.902 208.745C1000.65 224.93 1001.45 241.512 1001.45 343.477C1001.45 448.628 1000.79 461.517 994.462 478.208C979.853 516.772 953.541 543.155 915.14 557.746C897.584 564.417 886.14 564.953 761.362 564.953C618.613 564.953 606.438 566.258 597.75 582.49C595.664 586.389 587.839 606.047 580.361 626.175C564.524 668.803 562.439 672 550.477 672C543.822 672 540.259 668.91 536.647 660.004ZM234.704 394.852L235.741 360.087L265.157 361.291L294.574 362.495V397.105V431.714L308.416 430.474L322.258 429.234L323.255 351.288L324.251 273.342H309.412H294.574V302.872V332.402H265.043H235.513V302.67V272.937L217.98 274.062L200.446 275.186L199.449 351.514L198.452 427.841L206.832 429.447C211.44 430.331 219.364 430.729 224.439 430.333C233.498 429.627 233.687 428.974 234.704 394.849L234.704 394.852ZM459.742 426.389C477.372 419.023 485.664 411.291 494.499 393.979C515.879 352.088 501.03 294.144 464.008 274.999C451.911 268.744 414.051 267.921 399.093 273.588C342.946 294.861 340.386 399.914 395.405 424.893C414.175 433.415 441.411 434.049 459.742 426.389ZM404.539 391.847C393.402 381.897 392.492 379.281 391.369 354.012C390.382 331.798 391.514 324.712 397.597 315.011C409.673 295.755 439.501 292.582 457.271 308.664C464.42 315.134 472.322 345.045 469.955 356.675C469.16 360.582 467.511 368.488 466.291 374.244C460.394 402.081 426.731 411.677 404.539 391.847ZM640.843 414.422L641.979 398.846H603.008H564.038V336.094V273.342H547.427H530.816V350.244C530.816 392.54 531.985 428.314 533.414 429.743C534.842 431.172 559.343 431.814 587.86 431.169L639.709 429.999L640.843 414.422ZM696.809 414.534L702.232 398.846H730.66H759.088L761.653 410.842C763.064 417.44 765.891 424.915 767.936 427.453C771.929 432.41 798.757 433.885 801.496 429.299C802.406 427.776 791.162 392.478 776.511 350.859L749.872 275.188H730.352H710.831L684.019 350.859C669.272 392.478 657.81 427.574 658.548 428.849C659.286 430.124 666.977 430.955 675.638 430.695C690.718 430.242 691.616 429.556 696.809 414.534ZM712.664 364.701C713.635 362.164 717.438 350.536 721.115 338.863C724.793 327.189 728.856 317.638 730.144 317.638C731.433 317.638 735.496 327.189 739.173 338.863C742.851 350.536 746.654 362.164 747.625 364.701C748.899 368.029 744.022 369.315 730.144 369.315C716.267 369.315 711.391 368.028 712.664 364.701ZM884.44 408.997L885.547 387.772H863.215H840.883V407.459C840.883 418.286 842.065 428.327 843.51 429.772C844.955 431.217 854.506 431.909 864.735 431.31L883.333 430.222L884.44 408.997V408.997ZM880.247 334.249C882.61 313.947 884.686 280.31 884.861 259.5L885.177 221.665H863.03H840.882V248.219C840.882 272.067 850.097 356.413 854.038 368.64C854.968 371.522 859.746 373.025 865.777 372.331C875.789 371.18 876.017 370.58 880.246 334.249H880.247Z"
     fill="#E16168"
     id="path2"
     style="fill:#f8f4f0;fill-opacity:1" />
</svg>
