<?xml version="1.0" encoding="UTF-8" standalone="no"?>
<svg
   width="1104"
   height="794"
   viewBox="0 0 1104 794"
   fill="none"
   version="1.1"
   id="svg4"
   sodipodi:docname="stars.svg"
   inkscape:version="1.1.1 (3bf5ae0d25, 2021-09-20)"
   xmlns:inkscape="http://www.inkscape.org/namespaces/inkscape"
   xmlns:sodipodi="http://sodipodi.sourceforge.net/DTD/sodipodi-0.dtd"
   xmlns="http://www.w3.org/2000/svg"
   xmlns:svg="http://www.w3.org/2000/svg">
  <defs
     id="defs8" />
  <sodipodi:namedview
     id="namedview6"
     pagecolor="#ffffff"
     bordercolor="#666666"
     borderopacity="1.0"
     inkscape:pageshadow="2"
     inkscape:pageopacity="0.0"
     inkscape:pagecheckerboard="0"
     showgrid="false"
     inkscape:zoom="0.56171285"
     inkscape:cx="551.88341"
     inkscape:cy="397.89013"
     inkscape:window-width="1366"
     inkscape:window-height="715"
     inkscape:window-x="-8"
     inkscape:window-y="-8"
     inkscape:window-maximized="1"
     inkscape:current-layer="svg4" />
  <path
     d="M851.495 157.772L905.623 284.487L1043.67 296.827C1050.76 297.672 1056.96 301.235 1061.27 306.348C1065.59 311.501 1068.01 318.225 1067.57 325.35L1067.42 327.061C1067.02 330.282 1066.08 333.322 1064.69 336.079L1064.04 337.227C1062.86 339.3 1061.39 341.213 1059.72 342.883L954.478 434.855L985.196 569.261C986.886 576.548 985.417 583.895 981.713 589.773C978.03 595.61 972.051 600.119 964.744 601.77C961.141 602.575 957.457 602.635 953.955 602.011C950.553 601.408 947.312 600.139 944.413 598.328L826.494 527.854L771.46 560.746L764.153 529.324L818.523 496.814C820.911 495.362 823.65 494.59 826.445 494.579C829.24 494.568 831.985 495.32 834.385 496.754L953.331 567.852L922.452 432.782C921.264 427.428 922.915 421.63 927.323 417.765L1031.69 326.639L894.612 314.319C891.676 314.236 888.825 313.312 886.399 311.657C883.972 310.001 882.072 307.683 880.924 304.979L826.494 177.559L790.381 262.144L758.134 259.245L801.513 157.691C804.432 150.807 809.887 145.754 816.329 143.158C822.79 140.541 830.238 140.42 837.143 143.359L838.33 143.922C841.148 145.271 843.644 147.083 845.698 149.156C848.174 151.552 850.106 154.531 851.495 157.772V157.772ZM566.178 131.241L639.913 303.912L826.957 320.7C835.21 321.405 841.329 328.672 840.605 336.925C840.263 340.951 838.35 344.453 835.532 346.909L694.041 470.465L735.891 653.624C737.763 661.696 732.69 669.768 724.598 671.62C720.471 672.566 716.325 671.7 713.024 669.546L552.309 573.448L391.071 669.848C383.965 674.095 374.766 671.781 370.498 664.655C368.499 661.347 367.871 657.388 368.747 653.624L368.727 653.604L410.597 470.465L269.086 346.909C267.6 345.613 266.385 344.036 265.51 342.269C264.635 340.503 264.118 338.581 263.987 336.613C263.856 334.646 264.114 332.673 264.748 330.806C265.381 328.938 266.376 327.215 267.677 325.733C268.996 324.227 270.604 323 272.405 322.125C274.206 321.251 276.164 320.746 278.164 320.64L464.705 303.912L538.48 131.16C541.741 123.511 550.558 119.948 558.187 123.209C561.951 124.799 564.729 127.758 566.178 131.241V131.241ZM278.124 177.559L223.693 304.979C222.548 307.685 220.648 310.004 218.221 311.66C215.794 313.316 212.942 314.239 210.005 314.319L72.9228 326.639L177.295 417.765C179.386 419.596 180.943 421.959 181.8 424.602C182.658 427.246 182.784 430.072 182.166 432.782L151.307 567.852L270.233 496.754C275.286 493.734 281.365 493.956 286.095 496.814L340.546 529.364L333.359 560.867L278.124 527.854L160.205 598.348C157.306 600.139 154.065 601.408 150.663 602.011C147.161 602.635 143.477 602.575 139.894 601.77C132.547 600.119 126.588 595.61 122.905 589.773C119.221 583.875 117.751 576.548 119.422 569.261L150.14 434.855L44.9024 342.883C43.2317 341.213 41.7622 339.3 40.5746 337.227L39.9506 336.079C38.5415 333.322 37.5954 330.282 37.1928 327.061L37.0519 325.411C36.6091 318.245 39.0246 311.521 43.3525 306.348C47.6602 301.215 53.8601 297.672 60.9659 296.827L198.994 284.487L253.123 157.772C254.512 154.531 256.464 151.552 258.88 149.136C260.973 147.083 263.449 145.291 266.268 143.943L267.495 143.359C274.36 140.42 281.828 140.541 288.289 143.137C294.731 145.754 300.186 150.807 303.105 157.691L346.464 259.205L314.256 262.103L278.124 177.559V177.559Z"
     fill="#E16168"
     id="path2"
     style="fill:#f8f4f0;fill-opacity:1" />
</svg>
